<svg id="visual" viewBox="0 0 960 540" width="960" height="540" xmlns="http://www.w3.org/2000/svg" xmlns:xlink="http://www.w3.org/1999/xlink" version="1.1"><rect x="0" y="0" width="960" height="540" fill="#FFFFFF"></rect><path d="M402 0L377 0L377 77L403 77L403 154L460 154L460 231L392 231L392 309L476 309L476 386L488 386L488 463L477 463L477 540L0 540L0 463L0 463L0 386L0 386L0 309L0 309L0 231L0 231L0 154L0 154L0 77L0 77L0 0L0 0Z" fill="#f6f2ff"></path><path d="M333 0L383 0L383 77L324 77L324 154L364 154L364 231L354 231L354 309L383 309L383 386L396 386L396 463L372 463L372 540L0 540L0 463L0 463L0 386L0 386L0 309L0 309L0 231L0 231L0 154L0 154L0 77L0 77L0 0L0 0Z" fill="#f0e9ff"></path><path d="M201 0L313 0L313 77L205 77L205 154L215 154L215 231L294 231L294 309L279 309L279 386L209 386L209 463L251 463L251 540L0 540L0 463L0 463L0 386L0 386L0 309L0 309L0 231L0 231L0 154L0 154L0 77L0 77L0 0L0 0Z" fill="#eae1ff"></path><path d="M185 0L201 0L201 77L233 77L233 154L158 154L158 231L124 231L124 309L175 309L175 386L136 386L136 463L194 463L194 540L0 540L0 463L0 463L0 386L0 386L0 309L0 309L0 231L0 231L0 154L0 154L0 77L0 77L0 0L0 0Z" fill="#e4d9ff"></path><path d="M141 0L104 0L104 77L75 77L75 154L69 154L69 231L90 231L90 309L58 309L58 386L68 386L68 463L128 463L128 540L0 540L0 463L0 463L0 386L0 386L0 309L0 309L0 231L0 231L0 154L0 154L0 77L0 77L0 0L0 0Z" fill="#ded1ff"></path></svg>